<?xml version="1.0"?>

<svg xmlns="http://www.w3.org/2000/svg" style="display:none">

  <symbol id="ic-door" viewBox="0 0 24 24" fill="none" stroke="currentColor" stroke-width="1.7" stroke-linecap="round" stroke-linejoin="round">
    <rect x="5" y="3" width="14" height="18" rx="2"></rect>
    <path d="M15 12h.01"></path>
  </symbol>

  <symbol id="ic-gate" viewBox="0 0 24 24" fill="none" stroke="currentColor" stroke-width="1.7" stroke-linecap="round" stroke-linejoin="round">
    <path d="M4 6v14M20 6v14M4 9h16M4 17h16M9 9v8M15 9v8"></path>
  </symbol>

  <symbol id="ic-elevator" viewBox="0 0 24 24" fill="none" stroke="currentColor" stroke-width="1.7" stroke-linecap="round" stroke-linejoin="round">
    <rect x="4" y="3" width="16" height="18" rx="2"></rect>
    <path d="M9.5 14V9.5M8 11l1.5-1.5L11 11M14.5 10v4.5M13 13l1.5 1.5L16 13"></path>
  </symbol>

  <symbol id="ic-parking" viewBox="0 0 24 24" fill="none" stroke="currentColor" stroke-width="1.7" stroke-linecap="round" stroke-linejoin="round">
    <rect x="3" y="3" width="18" height="18" rx="3"></rect>
    <path d="M10 17V7h3.2a3 3 0 0 1 0 6H10"></path>
  </symbol>

  <symbol id="ic-playground" viewBox="0 0 24 24" fill="none" stroke="currentColor" stroke-width="1.7" stroke-linecap="round" stroke-linejoin="round">
    <path d="M17 5v14M17 7L7 18M3 18h18M7 12h4M5 15h5"></path>
  </symbol>

  <symbol id="ic-camera" viewBox="0 0 24 24" fill="none" stroke="currentColor" stroke-width="1.7" stroke-linecap="round" stroke-linejoin="round">
    <path d="M3.6 8.4 16 5.2l1.3 5L4.9 13.4 3.6 8.4Z"></path>
    <path d="M15.6 12.2 19 11M9 13.9V18M6.5 18h5"></path>
  </symbol>

  <symbol id="ic-logo" viewBox="0 0 24 24" fill="none" stroke="currentColor" stroke-width="1.75" stroke-linecap="round">
    <circle cx="9.4" cy="12" r="4.7"></circle>
    <circle cx="9.4" cy="12" r="1.75" fill="currentColor" stroke="none"></circle>
    <path d="M16.2 8.4a6 6 0 0 1 0 7.2"></path>
    <path d="M19.2 6.2a9.4 9.4 0 0 1 0 11.6"></path>
  </symbol>

  <symbol id="ic-copy" viewBox="0 0 24 24" fill="none" stroke="currentColor" stroke-width="1.7" stroke-linecap="round" stroke-linejoin="round">
    <rect x="9" y="9" width="11" height="11" rx="2.5"></rect>
    <path d="M15 6.5A2.5 2.5 0 0 0 12.5 4h-6A2.5 2.5 0 0 0 4 6.5v6A2.5 2.5 0 0 0 6.5 15"></path>
  </symbol>

  <symbol id="ic-check" viewBox="0 0 24 24" fill="none" stroke="currentColor" stroke-width="1.9" stroke-linecap="round" stroke-linejoin="round">
    <path d="M5 12.5 9.5 17 19 7"></path>
  </symbol>

  <symbol id="ic-play" viewBox="0 0 24 24" fill="none" stroke="currentColor" stroke-width="1.7" stroke-linecap="round" stroke-linejoin="round">
    <circle cx="12" cy="12" r="8.5"></circle>
    <path d="M10.5 9.2l4.5 2.8-4.5 2.8V9.2Z"></path>
  </symbol>

  <symbol id="ic-search" viewBox="0 0 24 24" fill="none" stroke="currentColor" stroke-width="1.7" stroke-linecap="round" stroke-linejoin="round">
    <circle cx="11" cy="11" r="6.5"></circle>
    <path d="M15.8 15.8 20 20"></path>
  </symbol>

  <symbol id="ic-close" viewBox="0 0 24 24" fill="none" stroke="currentColor" stroke-width="1.7" stroke-linecap="round" stroke-linejoin="round">
    <path d="M6.5 6.5l11 11M17.5 6.5l-11 11"></path>
  </symbol>

  <symbol id="ic-chevron" viewBox="0 0 24 24" fill="none" stroke="currentColor" stroke-width="1.7" stroke-linecap="round" stroke-linejoin="round">
    <path d="M10 7l5 5-5 5"></path>
  </symbol>

  <symbol id="ic-logout" viewBox="0 0 24 24" fill="none" stroke="currentColor" stroke-width="1.7" stroke-linecap="round" stroke-linejoin="round">
    <path d="M15 4h3a2 2 0 0 1 2 2v12a2 2 0 0 1-2 2h-3M10 8l-4 4 4 4M6 12h9"></path>
  </symbol>

  <symbol id="ic-theme" viewBox="0 0 24 24" fill="none" stroke="currentColor" stroke-width="1.7" stroke-linecap="round" stroke-linejoin="round">
    <circle cx="12" cy="12" r="8"></circle>
    <path d="M12 4a8 8 0 0 0 0 16Z" fill="currentColor" stroke="none"></path>
  </symbol>

  <symbol id="ic-grid" viewBox="0 0 24 24" fill="none" stroke="currentColor" stroke-width="1.7" stroke-linecap="round" stroke-linejoin="round">
    <rect x="4" y="4" width="7" height="7" rx="1.6"></rect>
    <rect x="13" y="4" width="7" height="7" rx="1.6"></rect>
    <rect x="4" y="13" width="7" height="7" rx="1.6"></rect>
    <rect x="13" y="13" width="7" height="7" rx="1.6"></rect>
  </symbol>

  <symbol id="ic-sliders" viewBox="0 0 24 24" fill="none" stroke="currentColor" stroke-width="1.7" stroke-linecap="round" stroke-linejoin="round">
    <path d="M4 8h10M18 8h2M4 16h4M12 16h8"></path>
    <circle cx="16" cy="8" r="2"></circle>
    <circle cx="10" cy="16" r="2"></circle>
  </symbol>

  <symbol id="ic-code" viewBox="0 0 24 24" fill="none" stroke="currentColor" stroke-width="1.7" stroke-linecap="round" stroke-linejoin="round">
    <path d="M9 8l-4 4 4 4M15 8l4 4-4 4"></path>
  </symbol>

  <symbol id="ic-sun" viewBox="0 0 24 24" fill="none" stroke="currentColor" stroke-width="1.7" stroke-linecap="round" stroke-linejoin="round">
    <circle cx="12" cy="12" r="4.3"></circle>
    <path d="M12 2.5v3M12 18.5v3M4.2 4.2l2.1 2.1M17.7 17.7l2.1 2.1M2.5 12h3M18.5 12h3M4.2 19.8l2.1-2.1M17.7 6.3l2.1-2.1"></path>
  </symbol>

  <symbol id="ic-moon" viewBox="0 0 24 24" fill="currentColor" stroke="none">
    <path d="M20 14.2A8.5 8.5 0 1 1 9.8 4a7 7 0 0 0 10.2 10.2Z"></path>
  </symbol>

  <symbol id="ic-grip" viewBox="0 0 24 24" fill="currentColor" stroke="none">
    <circle cx="9" cy="6" r="1.6"></circle>
    <circle cx="15" cy="6" r="1.6"></circle>
    <circle cx="9" cy="12" r="1.6"></circle>
    <circle cx="15" cy="12" r="1.6"></circle>
    <circle cx="9" cy="18" r="1.6"></circle>
    <circle cx="15" cy="18" r="1.6"></circle>
  </symbol>

  <symbol id="ic-folder" viewBox="0 0 24 24" fill="none" stroke="currentColor" stroke-width="1.7" stroke-linecap="round" stroke-linejoin="round">
    <path d="M4 6.5A1.5 1.5 0 0 1 5.5 5h4l2 2.5h7A1.5 1.5 0 0 1 20 9v8.5A1.5 1.5 0 0 1 18.5 19h-13A1.5 1.5 0 0 1 4 17.5V6.5Z"></path>
  </symbol>

  <symbol id="ic-retry" viewBox="0 0 24 24" fill="none" stroke="currentColor" stroke-width="1.7" stroke-linecap="round" stroke-linejoin="round">
    <path d="M4.5 12a7.5 7.5 0 1 1 2.4 5.5"></path>
    <path d="M4.5 17v-4.5H9"></path>
  </symbol>

</svg>
